<svg xmlns="http://www.w3.org/2000/svg" viewBox="0 0 22.266 19.789">
  <defs>
    <style>
      .cls-1 {
        fill: #f5f5f5;
      }

      .cls-2 {
        fill: #0a3251;
        stroke: #0a3251;
        stroke-width: 0.3px;
      }
    </style>
  </defs>
  <g id="Icon" transform="translate(-103.087 -301)">
    <path id="Path_5" data-name="Path 5" class="cls-1" d="M4.136-.026H20.618a1.648,1.648,0,0,1,1.648,1.648L19.778,18.114a1.648,1.648,0,0,1-1.648,1.648H1.648A1.648,1.648,0,0,1,0,18.114L2.488,1.622A1.648,1.648,0,0,1,4.136-.026Z" transform="translate(103.087 301.026)"/>
    <g id="noun_Headphones_1827198" transform="translate(-69 8)">
      <g id="Group_149" data-name="Group 149" transform="translate(147.309 271.813)">
        <path id="Path_193" data-name="Path 193" class="cls-2" d="M31.1,34.1a.448.448,0,0,0,.448-.448V30.611a4.715,4.715,0,1,1,9.43,0v3.041a.448.448,0,1,0,.9,0V30.611a5.611,5.611,0,1,0-11.223,0v3.041A.448.448,0,0,0,31.1,34.1Z" transform="translate(0 0)"/>
        <path id="Path_194" data-name="Path 194" class="cls-2" d="M75.838,292.6h0a.448.448,0,0,0,.448-.448v-4.068a.448.448,0,0,0-.448-.448H74.427a1.324,1.324,0,0,0-1.322,1.323v2.31a1.326,1.326,0,0,0,1.313,1.322ZM74,291.269v-2.31a.427.427,0,0,1,.426-.426h.966V291.7l-.969-.007A.427.427,0,0,1,74,291.269Z" transform="translate(-41.393 -256.097)"/>
        <path id="Path_195" data-name="Path 195" class="cls-2" d="M323.664,292.586a1.324,1.324,0,0,0,1.322-1.322v-2.3a1.324,1.324,0,0,0-1.322-1.323h-1.138a.448.448,0,0,0-.448.448v4.052a.448.448,0,0,0,.448.448Zm-.69-4.052h.69a.426.426,0,0,1,.426.426v2.3a.426.426,0,0,1-.426.426h-.69Z" transform="translate(-284.165 -256.097)"/>
      </g>
    </g>
  </g>
</svg>
