<svg xmlns="http://www.w3.org/2000/svg" viewBox="0 0 22.266 19.789">
  <defs>
    <style>
      .cls-1 {
        fill: #f5f5f5;
      }

      .cls-2 {
        fill: #0a3251;
      }
    </style>
  </defs>
  <g id="Icon" transform="translate(-103.087 -301)">
    <path id="Path_5" data-name="Path 5" class="cls-1" d="M4.136-.026H20.618a1.648,1.648,0,0,1,1.648,1.648L19.778,18.114a1.648,1.648,0,0,1-1.648,1.648H1.648A1.648,1.648,0,0,1,0,18.114L2.488,1.622A1.648,1.648,0,0,1,4.136-.026Z" transform="translate(103.087 301.026)"/>
    <g id="icon_2_" data-name="icon (2)" transform="translate(110.718 304.012)">
      <path id="Path_6" data-name="Path 6" class="cls-2" d="M13.009,0H6.992A1.03,1.03,0,0,0,5.951,1.019V12.97a1.029,1.029,0,0,0,1.041,1.018h6.017a1.03,1.03,0,0,0,1.041-1.018V1.019A1.03,1.03,0,0,0,13.009,0ZM8.515.619h2.97c.075,0,.136.11.136.245s-.061.246-.136.246H8.515C8.44,1.11,8.38,1,8.38.864S8.44.619,8.515.619ZM10,12.982a.65.65,0,1,1,.663-.65A.658.658,0,0,1,10,12.982Zm3.269-2.227H6.731V1.719H13.27v9.036Z" transform="translate(-5.951)"/>
    </g>
  </g>
</svg>
