<svg xmlns="http://www.w3.org/2000/svg" viewBox="0 0 15.513 19.028">
    <defs>
        <style>
            .cls-1{fill:#F680A4}
        </style>
    </defs>
    <path id="Path_162" d="M80.308 31a4.291 4.291 0 0 0-4.286 4.286v.576h-2.7a.761.761 0 0 0-.757.844c.007.067.74 6.788 1.135 10.384a3.294 3.294 0 0 0 3.279 2.938h6.675a3.294 3.294 0 0 0 3.279-2.939l1.137-10.382a.761.761 0 0 0-.757-.844h-2.718v-.576A4.291 4.291 0 0 0 80.308 31zm-2.764 4.286a2.764 2.764 0 0 1 5.529 0v.576h-5.529zm8.924 2.1l-1.045 9.538a1.774 1.774 0 0 1-1.765 1.583h-6.675a1.774 1.774 0 0 1-1.765-1.582c-.311-2.835-.832-7.611-1.043-9.539h1.847v2.1a.761.761 0 0 0 1.522 0v-2.1h5.529v2.1a.761.761 0 1 0 1.522 0v-2.1z" class="cls-1" data-name="Path 162" transform="translate(-72.565 -31)"/>
</svg>
