<svg xmlns="http://www.w3.org/2000/svg" viewBox="0 0 17.2 19.887">
    <defs>
        <style>
            .cls-1{fill:#F680A4}
        </style>
    </defs>
    <g id="chronometer" transform="translate(-119.8 -216.619)">
        <g id="Group_6" data-name="Group 6" transform="translate(-46.275 158.657)">
            <path id="Path_8" d="M181.8 63.887a.469.469 0 0 0 .67 0l.67-.67a.469.469 0 0 0 0-.67l-1.516-1.516a.469.469 0 0 0-.67 0l-.67.67a.469.469 0 0 0 0 .67l.064.064-.471.471a8.291 8.291 0 0 0-4.211-1.752V60.3h.52a.472.472 0 0 0 .471-.471v-1.396a.472.472 0 0 0-.471-.471h-3.016a.472.472 0 0 0-.471.471v1.393a.472.472 0 0 0 .471.471h.52v.857a8.365 8.365 0 0 0-4.211 1.752l-.471-.471.064-.064a.469.469 0 0 0 0-.67l-.67-.67a.469.469 0 0 0-.67 0l-1.516 1.516a.469.469 0 0 0 0 .67l.67.67a.469.469 0 0 0 .67 0l.064-.064.471.471a8.379 8.379 0 1 0 13.169 0l.471-.471zm-7.12 12.022a6.434 6.434 0 1 1 6.434-6.434 6.443 6.443 0 0 1-6.439 6.434z" class="cls-1" data-name="Path 8"/>
            <path id="Path_12" d="M307.92 223.688a.511.511 0 0 0-.67-.2l-2.9 1.42a1.291 1.291 0 0 0-1.136.08 1.275 1.275 0 1 0 1.913 1.243l2.641-1.859a.51.51 0 0 0 .152-.684zm-3.509 2.534a.559.559 0 1 1-.4-.68.563.563 0 0 1 .4.68z" class="cls-1" data-name="Path 12" transform="translate(-129.2 -156.608)"/>
            <path id="Path_13" d="M355.7 195.955a.521.521 0 1 0-.193-.188.645.645 0 0 0 .193.188z" class="cls-1" data-name="Path 13" transform="translate(-179.215 -129.673)"/>
            <path id="Path_14" d="M316.725 185.807a.522.522 0 1 0-.525-.52.533.533 0 0 0 .07.263.515.515 0 0 0 .455.257z" class="cls-1" data-name="Path 14" transform="translate(-142.082 -120.007)"/>
            <path id="Path_15" d="M318.12 341.663a.529.529 0 0 0-.52.53.516.516 0 0 0 .525.514.521.521 0 0 0 .514-.53.516.516 0 0 0-.519-.514z" class="cls-1" data-name="Path 15" transform="translate(-143.407 -268.502)"/>
            <path id="Path_16" d="M356.971 330.893a.517.517 0 0 0-.182.713.522.522 0 0 0 .9-.53.529.529 0 0 0-.718-.183z" class="cls-1" data-name="Path 16" transform="translate(-180.426 -258.241)"/>
            <path id="Path_17" d="M385.915 301.988a.524.524 0 0 0-.707.723.5.5 0 0 0 .193.188.523.523 0 0 0 .514-.911z" class="cls-1" data-name="Path 17" transform="translate(-207.324 -230.889)"/>
            <path id="Path_18" d="M239.345 264.583a.522.522 0 1 0-1.045.011.522.522 0 0 0 1.045-.011z" class="cls-1" data-name="Path 18" transform="translate(-68.356 -195.059)"/>
            <path id="Path_19" d="M249.571 303.248a.517.517 0 0 0-.182.713.524.524 0 1 0 .9-.536.528.528 0 0 0-.718-.177z" class="cls-1" data-name="Path 19" transform="translate(-78.78 -232.074)"/>
            <path id="Path_20" d="M395.3 263.087a.5.5 0 0 0 .075.263.519.519 0 1 0-.075-.263z" class="cls-1" data-name="Path 20" transform="translate(-216.943 -193.639)"/>
            <path id="Path_21" d="M248.643 225.8a.52.52 0 0 0 .713-.2.525.525 0 0 0-.916-.514.539.539 0 0 0 .005.525.556.556 0 0 0 .198.189z" class="cls-1" data-name="Path 21" transform="translate(-77.89 -157.919)"/>
            <path id="Path_22" d="M277.507 196.607a.005.005 0 0 0 .005-.005c.005 0 .005 0 .005-.005h.005a.524.524 0 0 0-.536-.9.005.005 0 0 0-.005.005c-.005 0-.005.005-.011.005a.517.517 0 0 0-.182.713.526.526 0 0 0 .719.187z" class="cls-1" data-name="Path 22" transform="translate(-104.712 -130.288)"/>
            <path id="Path_23" d="M279.015 331.645a.524.524 0 0 0-.707.723.554.554 0 0 0 .193.193.525.525 0 0 0 .514-.916z" class="cls-1" data-name="Path 23" transform="translate(-106.151 -258.955)"/>
        </g>
    </g>
</svg>
