<svg xmlns="http://www.w3.org/2000/svg" viewBox="0 0 22.266 19.789">
  <defs>
    <style>
      .cls-1 {
        fill: #f5f5f5;
      }

      .cls-2 {
        fill: #0a3251;
        stroke: #0a3251;
        stroke-width: 0.2px;
      }
    </style>
  </defs>
  <g id="Icon" transform="translate(-103 -301)">
    <path id="Path_5" data-name="Path 5" class="cls-1" d="M4.136-.026H20.618a1.648,1.648,0,0,1,1.648,1.648L19.778,18.114a1.648,1.648,0,0,1-1.648,1.648H1.648A1.648,1.648,0,0,1,0,18.114L2.488,1.622A1.648,1.648,0,0,1,4.136-.026Z" transform="translate(103 301.026)"/>
    <g id="noun_Camera_1828499" transform="translate(108.772 235.033)">
      <g id="Group_139" data-name="Group 139" transform="translate(-1.018 70.108)">
        <path id="Path_177" data-name="Path 177" class="cls-2" d="M44.781,73.06H43l-.1-.316A1.736,1.736,0,0,0,41.235,71.5h-2.89a1.756,1.756,0,0,0-1.677,1.258l-.088.3H34.849A1.749,1.749,0,0,0,33.1,74.807v6.06a1.749,1.749,0,0,0,1.747,1.747h9.933a1.749,1.749,0,0,0,1.747-1.747v-6.06A1.749,1.749,0,0,0,44.781,73.06Zm.663,7.806a.663.663,0,0,1-.663.663H34.849a.663.663,0,0,1-.663-.663v-6.06a.663.663,0,0,1,.663-.663h2.138a.542.542,0,0,0,.52-.391l.2-.692a.666.666,0,0,1,.636-.477h2.89a.659.659,0,0,1,.635.472l.211.7a.542.542,0,0,0,.519.386h2.181a.663.663,0,0,1,.663.663v6.06Z" transform="translate(-33.102 -71.5)"/>
        <path id="Path_178" data-name="Path 178" class="cls-2" d="M131.781,142.5a2.751,2.751,0,1,0,2.751,2.751A2.754,2.754,0,0,0,131.781,142.5Zm0,4.716a1.965,1.965,0,1,1,1.965-1.965A1.967,1.967,0,0,1,131.781,147.216Z" transform="translate(-125.097 -139.317)"/>
      </g>
    </g>
  </g>
</svg>
