<svg xmlns="http://www.w3.org/2000/svg" viewBox="0 0 22.266 19.789">
  <defs>
    <style>
      .cls-1 {
        fill: #f5f5f5;
      }

      .cls-2 {
        fill: #0a3251;
      }
    </style>
  </defs>
  <g id="Icon" transform="translate(-103.087 -301)">
    <path id="Path_5" data-name="Path 5" class="cls-1" d="M4.136-.026H20.618a1.648,1.648,0,0,1,1.648,1.648L19.778,18.114a1.648,1.648,0,0,1-1.648,1.648H1.648A1.648,1.648,0,0,1,0,18.114L2.488,1.622A1.648,1.648,0,0,1,4.136-.026Z" transform="translate(103.087 301.026)"/>
    <g id="noun_dots_1440577" transform="translate(195.295 284.206) rotate(90)">
      <g id="Group" transform="translate(20.431 79.35)">
        <path id="Compound_Path" data-name="Compound Path" class="cls-2" d="M2.7,0A2.7,2.7,0,1,0,5.4,2.7,2.7,2.7,0,0,0,2.7,0Zm0,3.956A1.254,1.254,0,1,1,3.956,2.7,1.254,1.254,0,0,1,2.7,3.956Z" transform="translate(3.606 -4.73)"/>
        <path id="Compound_Path-2" data-name="Compound Path" class="cls-2" d="M2.7,0A2.7,2.7,0,1,0,5.4,2.7,2.7,2.7,0,0,0,2.7,0Zm0,3.956A1.254,1.254,0,1,1,3.956,2.7,1.254,1.254,0,0,1,2.7,3.956Z" transform="translate(3.607 2.216)"/>
      </g>
    </g>
  </g>
</svg>
