<svg xmlns="http://www.w3.org/2000/svg" viewBox="0 0 22.266 19.789">
  <defs>
    <style>
      .cls-1 {
        fill: #f5f5f5;
      }

      .cls-2, .cls-3 {
        fill: #0a3251;
        fill-rule: evenodd;
      }

      .cls-2 {
        stroke: #0a3251;
        stroke-width: 0.62px;
      }
    </style>
  </defs>
  <g id="Icon" transform="translate(-103.087 -301)">
    <path id="Path_5" data-name="Path 5" class="cls-1" d="M4.136-.026H20.618a1.648,1.648,0,0,1,1.648,1.648L19.778,18.114a1.648,1.648,0,0,1-1.648,1.648H1.648A1.648,1.648,0,0,1,0,18.114L2.488,1.622A1.648,1.648,0,0,1,4.136-.026Z" transform="translate(103.087 301.026)"/>
    <g id="noun_Laptop_1143034" transform="translate(106.716 136)">
      <g id="Group_148" data-name="Group 148" transform="translate(0.159 170)">
        <g id="Group_147" data-name="Group 147" transform="translate(0 0)">
          <path id="Path_190" data-name="Path 190" class="cls-2" d="M90.3,170h11.14a.323.323,0,0,1,.3.353v7.491a.323.323,0,0,1-.3.353H90.3a.335.335,0,0,1-.3-.353v-7.491A.335.335,0,0,1,90.3,170Zm.335.758H101.1v6.663H90.635Z" transform="translate(-88.572 -170)"/>
          <path id="Path_191" data-name="Path 191" class="cls-3" d="M9.529,618H23.084a.516.516,0,0,1,.511.529h0a.512.512,0,0,1-.511.511H9.529A.527.527,0,0,1,9,618.529H9A.53.53,0,0,1,9.529,618Zm5.711.3h2.133a.219.219,0,0,1,.212.229h0a.214.214,0,0,1-.212.211H15.24a.214.214,0,0,1-.212-.211h0A.219.219,0,0,1,15.24,618.3Z" transform="translate(-9 -610.103)"/>
        </g>
      </g>
    </g>
  </g>
</svg>
