<svg xmlns="http://www.w3.org/2000/svg" viewBox="0 0 18.519 17.743">
    <defs>
        <style>
            .cls-1{fill:#F680A4}
        </style>
    </defs>
    <path id="star_1_" d="M18.117 9.088a1.328 1.328 0 0 0-.736-2.265L12.9 6.171a.586.586 0 0 1-.441-.321l-2-4.063a1.328 1.328 0 0 0-2.382 0L6.063 5.85a.586.586 0 0 1-.442.321l-4.484.652A1.328 1.328 0 0 0 .4 9.088l3.244 3.162a.587.587 0 0 1 .169.519l-.765 4.466a1.3 1.3 0 0 0 .29 1.077 1.342 1.342 0 0 0 1.637.323l4.01-2.109a.6.6 0 0 1 .546 0l4.011 2.109a1.314 1.314 0 0 0 .618.155 1.332 1.332 0 0 0 1.019-.478 1.3 1.3 0 0 0 .29-1.077L14.7 12.77a.587.587 0 0 1 .169-.519z" class="cls-1" data-name="star (1)" transform="translate(.001 -1.047)"/>
</svg>
