<svg xmlns="http://www.w3.org/2000/svg" viewBox="0 0 48 48">
    <defs>
        <style>
            .cls-1{fill:#fff}.cls-2{fill:#90aeff;stroke:#90aeff;stroke-width:.5px}
        </style>
    </defs>
    <g id="Icon" transform="translate(-111 -2381.772)">
        <path id="Rectangle_193" d="M0 0h48v48H0z" class="cls-1" data-name="Rectangle 193" transform="translate(111 2381.772)"/>
        <path id="Path_280" d="M65.243 28.18l-1.806-7.741A.6.6 0 0 0 63.05 20a.565.565 0 0 0-.568.077L57.4 23.639l-5.083-3.587a.573.573 0 0 0-.568-.077.66.66 0 0 0-.387.439l-1.806 7.741a.631.631 0 0 0 .619.774.52.52 0 0 0 .284-.077l3.3-1.78 1.141 3.972L53.09 47.2a.567.567 0 0 0 .232.542l3.664 3.019a.543.543 0 0 0 .387.129.7.7 0 0 0 .387-.129l3.612-2.967a.684.684 0 0 0 .155-.129.571.571 0 0 0 .155-.49l-1.7-16.152 1.135-3.974 3.3 1.78a.673.673 0 0 0 .284.077.768.768 0 0 0 .387-.129.58.58 0 0 0 .155-.597zm-12.9-6.58l3.87 2.709-2.4 1.29-2.761 1.5zm8.025 25.39l-3.019 2.5-3.019-2.477 1.729-15.378h2.709zM58.844 30.4h-2.89l-1.11-3.922 2.556-1.369 2.554 1.368zm2.116-4.773l-2.4-1.29 3.87-2.709 1.29 5.522z" class="cls-2" data-name="Path 280" transform="translate(77.658 2370.375)"/>
    </g>
</svg>
