<svg xmlns="http://www.w3.org/2000/svg" viewBox="0 0 48 48">
    <defs>
        <style>
            .cls-1{fill:#fff}.cls-2{fill:none;stroke:#90aeff;stroke-width:2px}
        </style>
    </defs>
    <g id="Icon" transform="translate(-111 -2381.772)">
        <path fill="" id="Rectangle_193" d="M0 0h48v48H0z" class="cls-1" data-name="Rectangle 193" transform="translate(111 2381.772)"/>
        <g id="guarantee" transform="translate(118 2388.516)">
            <g id="Group_14" data-name="Group 14" transform="translate(0 .256)">
                <path id="Path_31" d="M34.073 17.293l-2.916-3.8.652-4.72-4.451-1.764-1.765-4.451-4.72.652L17.037.256l-3.8 2.916-4.719-.652-1.765 4.451L2.3 8.736l.652 4.72L0 17.293l2.916 3.8-.652 4.72 4.451 1.765 1.765 4.449 4.72-.652 3.8 2.916 3.8-2.916 4.72.652 1.765-4.451 4.451-1.8-.652-4.72zm-18.418 5.525l-5.679-4.681 1.228-1.5 4.221 3.453 7.214-8.326 1.461 1.27z" class="cls-2" data-name="Path 31" transform="translate(0 -.256)"/>
            </g>
        </g>
    </g>
</svg>
