<?xml version="1.0" ?><svg id="Layer_1" style="enable-background:new 0 0 100 100;" version="1.1" viewBox="0 0 100 100" xml:space="preserve" xmlns="http://www.w3.org/2000/svg" xmlns:xlink="http://www.w3.org/1999/xlink"><style type="text/css">
	.st0{fill:none;}
</style><title/><g><path class="st0" d="M43.1,51.6c0.3,0.8,0.6,1.7,1,2.5c0.3,0.7,0.7,1.5,1.1,2.2c0.9-0.8,1.7-1.5,2.6-2.2c-1.3-1-3.2-2.5-4.6-2.7   C42.7,51,42.6,51,43.1,51.6z"/><path class="st0" d="M84.3,45.7C84,45.2,84,44.5,84.4,44c3.3-4.1,5.6-8.9,6.9-14.1c-2.6-0.6-5.3-1.2-8-1.7   c-2.8-0.6-5.6-1.1-8.4-1.7c-0.7-0.1-1.3-0.8-1.2-1.6c0.2-1.7,0.3-3.4,0.3-5.1c0-1.3-0.1-2.7-0.2-4.1c-0.2-2.7-0.7-5.3-1.4-7.9   C66.7,10,61.6,13.1,57,17c-0.6,0.5-1.4,0.4-2-0.1c-1.9-1.8-3.9-3.7-6.1-5.6c-2.2-1.9-4.4-3.7-6.6-5.3c-1.5,2.3-3,4.7-4.5,7.2   c-1.3,2.2-2.6,4.3-3.8,6.4c-0.3,0.5-0.9,0.8-1.5,0.7c-2.6-0.4-5.5-0.7-8.5-1c-2.6-0.2-5.1-0.3-7.5-0.3c0.4,2.6,0.9,5.3,1.5,8.2   c0.6,2.9,1.4,5.6,2.1,8.1c0.2,0.6-0.1,1.3-0.6,1.7c-2.3,1.4-4.6,2.8-6.9,4.3c-2.3,1.5-4.6,2.9-6.8,4.4c1.5,1.8,3.1,3.8,5,5.7   c2,2.1,4.1,4,6.3,5.9c0.5,0.4,0.6,1,0.4,1.6c-1,2.6-2.1,5.2-3.4,8c-1.1,2.3-2.2,4.5-3.3,6.6c0.3,0,0.5,0,0.8,0c1.9,0,3.9,0.1,6,0.2   c2.7,0.2,5.4,0.6,8,1.1c0.6,0.1,1.1,0.6,1.2,1.2c0.5,2.8,0.9,5.7,1.3,8.7c0.3,2.6,0.5,5.2,0.7,7.6c2.2-1.2,4.5-2.5,6.7-3.8   c2.9-1.7,5.6-3.4,8.3-5.1c0.5-0.3,1.2-0.3,1.6,0.1c1.8,1.3,3.6,2.7,5.4,4.2c2.5,2.1,4.7,4.1,6.7,6.1l9.5-11.1   c0.3-0.4,0.8-0.6,1.4-0.5L83,84.9c-0.5-2.8-0.9-5.6-1.1-8.4c-0.2-2-0.2-3.9-0.2-5.6c0-0.7,0-1.3,0-1.9c0-0.5,0.2-0.9,0.6-1.2   c2-1.4,4-2.9,6.1-4.5c2-1.6,3.9-3.2,5.6-4.7c-1.8-2.1-3.7-4.3-5.5-6.8C87,49.7,85.6,47.6,84.3,45.7z M41.2,70.4   C39,72.6,36,73,33,72.8c-2.2-0.1-2.2-3.6,0-3.5c2,0.1,5,0.2,6.1-1.9c1.2-2.3-1.8-2.7-3.3-2.4c-0.9,0.2-1.7,0.7-2.6,1   c-2.4,0.7-5.1,0.4-6.6-1.8c-1.4-2.1-1.3-4.8,0.2-6.8c1.7-2.4,4.6-3.1,7.4-3c2.2,0.1,2.2,3.6,0,3.5c-1.8-0.1-6.1,0.7-5.1,3.6   c0.9,2.8,5,0.3,6.7-0.1c2.4-0.6,5.1-0.1,6.4,2.3C43.5,66,43,68.7,41.2,70.4z M53.7,58.8c-1-0.9-2-1.8-3-2.6   c-1.3,1.1-2.6,2.1-3.9,3.3c0.6,1.1,1.2,2.1,1.7,3.2c1.1,2-1.9,3.7-3,1.8c-2-3.4-3.8-6.9-5.3-10.5c-0.7-1.8-1.8-5,0.4-6.3   c2.2-1.3,5.6,1.4,7.4,2.5c2.9,1.8,5.6,3.9,8.1,6.3C57.8,57.9,55.3,60.3,53.7,58.8z M66.4,52.3c-1.7,1-3.4,2.1-5,3.4   c-0.7,0.7-1.8,0.7-2.5,0c-3.6-3.8-6.8-8-9.7-12.4c-1.2-1.9,1.8-3.6,3-1.8c2.4,3.7,5.2,7.3,8.1,10.6c1.4-1,2.7-1.9,4.2-2.8   C66.6,48.1,68.3,51.2,66.4,52.3z M75.7,44.4c-2,1.5-6,6.1-8.6,3.8c-1.6-1.4-2.8-3.7-4.2-5.3c-1.7-2-3.4-3.8-5.3-5.6   c-0.5-0.4-0.6-1.1-0.4-1.7c0.1-0.3,0.2-0.7,0.5-0.9c1.9-2,4-3.7,6.3-5.1c1.9-1.2,3.7,1.8,1.8,3c-1.6,1-3.1,2.2-4.5,3.4   c0.9,0.9,1.8,1.9,2.7,2.9l4.2-3.6c1.7-1.5,4.2,1,2.5,2.5l-4.4,3.8c0.4,0.5,0.8,1,1.2,1.5c0.3,0.4,1.2,1.2,1.3,1.7   c0.1,0.1,0.2,0.2,0.3,0.3l0.2-0.1c1.5-1.2,3.2-2.3,4.8-3.5C75.7,40,77.5,43.1,75.7,44.4z"/><path d="M97.2,57.7c-2.1-2.3-4.2-4.9-6.3-7.7c-1.3-1.7-2.5-3.4-3.6-5.1c3.5-4.7,6-10.1,7.1-15.9c0.1-0.8-0.3-1.5-1.1-1.7   c-3.1-0.7-6.3-1.4-9.5-2.1c-2.4-0.5-4.8-1-7.1-1.4c0.1-1.2,0.2-2.6,0.2-4.1c0-1.4-0.1-2.8-0.2-4.4c-0.3-3.4-1-6.7-2-10   c-0.2-0.8-1.1-1.2-1.8-1c0,0,0,0-0.1,0c-6,2.2-11.7,5.4-16.7,9.4c-1.6-1.6-3.4-3.2-5.3-4.8c-2.7-2.4-5.4-4.5-8-6.4   c-0.6-0.5-1.6-0.3-2,0.3c0,0,0,0-0.1,0.1c-1.8,2.8-3.6,5.6-5.3,8.6c-1.1,1.9-2.3,3.8-3.3,5.6c-2.4-0.3-5-0.6-7.7-0.8   c-3.2-0.2-6.2-0.3-9-0.3H15c-0.8,0-1.4,0.7-1.4,1.5c0,0.1,0,0.1,0,0.2c0.4,3.1,1,6.5,1.8,10.1c0.6,2.6,1.2,5,1.9,7.3   c-2,1.2-4,2.4-6,3.7c-2.8,1.8-5.5,3.5-8.2,5.3c-0.7,0.4-0.9,1.3-0.4,2c0,0,0,0.1,0.1,0.1c1.9,2.5,4,4.9,6.2,7.2   c2,2,3.9,3.8,5.7,5.4c-0.9,2.2-1.8,4.5-2.9,6.9c-1.4,3.1-2.9,6-4.4,8.6c-0.4,0.7-0.1,1.6,0.6,2c0.2,0.1,0.5,0.2,0.8,0.2   c1,0,2.1-0.1,3.2-0.1c1.8,0,3.8,0.1,5.8,0.2c2.4,0.2,4.7,0.5,6.7,0.8c0.4,2.4,0.8,4.9,1.1,7.5c0.4,3.4,0.7,6.7,0.9,9.8   c0,0.8,0.7,1.4,1.5,1.4c0.2,0,0.4-0.1,0.6-0.2c2.9-1.5,5.8-3.2,8.8-4.9c2.6-1.5,5.1-3.1,7.5-4.6c1.5,1.1,3,2.3,4.5,3.5   c2.8,2.4,5.4,4.7,7.6,7c0.6,0.6,1.5,0.6,2.1,0C59,97,59,97,59,97c3.3-3.9,6.6-7.8,9.9-11.6l15.6,2.8c0.8,0.1,1.5-0.4,1.7-1.2   c0-0.2,0-0.4,0-0.6c-0.7-3.3-1.2-6.7-1.5-10.1c-0.1-1.9-0.2-3.7-0.2-5.4c0-0.4,0-0.7,0-1.1c1.8-1.3,3.7-2.7,5.7-4.2   c2.5-2,4.8-3.9,6.8-5.8C97.7,59.2,97.7,58.3,97.2,57.7z M88.5,63.3c-2.1,1.7-4.2,3.2-6.1,4.5c-0.4,0.3-0.6,0.7-0.6,1.2   c0,0.6,0,1.3,0,1.9c0,1.8,0.1,3.7,0.2,5.6c0.2,2.8,0.6,5.6,1.1,8.4l-14.3-2.5c-0.5-0.1-1,0.1-1.4,0.5l-9.5,11.1c-2-2-4.3-4-6.7-6.1   c-1.8-1.5-3.6-2.9-5.4-4.2c-0.5-0.4-1.1-0.4-1.6-0.1c-2.6,1.7-5.4,3.4-8.3,5.1c-2.3,1.3-4.5,2.6-6.7,3.8c-0.2-2.5-0.4-5-0.7-7.6   c-0.4-3-0.8-6-1.3-8.7c-0.1-0.6-0.6-1.1-1.2-1.2c-2.7-0.5-5.3-0.8-8-1.1c-2.1-0.2-4.1-0.2-6-0.2c-0.3,0-0.5,0-0.8,0   c1.1-2.1,2.2-4.3,3.3-6.6c1.3-2.8,2.4-5.5,3.4-8c0.2-0.6,0-1.2-0.4-1.6c-2.2-1.9-4.3-3.8-6.3-5.9c-1.9-2-3.5-3.9-5-5.7   c2.2-1.5,4.5-2.9,6.8-4.4c2.3-1.5,4.6-2.9,6.9-4.3c0.6-0.3,0.8-1,0.6-1.7c-0.8-2.5-1.5-5.2-2.1-8.1c-0.6-2.9-1.1-5.6-1.5-8.2   c2.4,0,4.8,0.1,7.5,0.3c3,0.2,5.8,0.6,8.5,1c0.6,0.1,1.2-0.2,1.5-0.7c1.2-2.1,2.5-4.3,3.8-6.4c1.5-2.5,3-4.9,4.5-7.2   c2.1,1.6,4.3,3.4,6.6,5.3c2.2,1.9,4.2,3.8,6.1,5.6c0.5,0.5,1.4,0.6,2,0.1c4.6-3.9,9.8-7,15.4-9.2c0.7,2.6,1.2,5.2,1.4,7.9   c0.1,1.5,0.2,2.8,0.2,4.1c0,1.7-0.1,3.4-0.3,5.1c-0.1,0.8,0.4,1.4,1.2,1.6c2.8,0.5,5.6,1.1,8.4,1.7c2.7,0.6,5.4,1.1,8,1.7   C90,35,87.7,39.8,84.4,44c-0.4,0.5-0.4,1.2-0.1,1.7c1.3,2,2.7,4,4.3,6.1c1.9,2.5,3.7,4.7,5.5,6.8C92.4,60.1,90.5,61.7,88.5,63.3z"/><path d="M35.9,61.5c-1.6,0.4-5.7,3-6.7,0.1c-1-2.9,3.3-3.7,5.1-3.6c2.2,0.1,2.2-3.4,0-3.5c-2.8-0.1-5.7,0.6-7.4,3   c-1.5,2-1.6,4.7-0.2,6.8c1.5,2.2,4.2,2.4,6.6,1.8c0.9-0.2,1.7-0.8,2.6-1c1.5-0.3,4.5,0,3.3,2.4c-1.1,2.1-4.2,2-6.1,1.9   c-2.2-0.1-2.2,3.3,0,3.5c2.9,0.2,6-0.2,8.2-2.4c1.8-1.8,2.3-4.5,1.1-6.7C41,61.3,38.3,60.9,35.9,61.5z"/><path d="M48,50c-1.7-1.1-5.2-3.8-7.4-2.5c-2.1,1.3-1.1,4.6-0.4,6.3c1.5,3.6,3.3,7.1,5.3,10.5c1.1,2,4.1,0.2,3-1.8   c-0.6-1.1-1.2-2.1-1.7-3.2c1.3-1.1,2.5-2.2,3.9-3.3c1,0.8,2,1.7,3,2.6c1.6,1.5,4.1-0.9,2.5-2.5C53.6,54,50.9,51.9,48,50z    M45.2,56.3c-0.4-0.7-0.7-1.5-1.1-2.2c-0.4-0.8-0.7-1.6-1-2.5c-0.4-0.5-0.4-0.6,0.2-0.2c1.3,0.2,3.3,1.7,4.6,2.7   C46.9,54.8,46,55.5,45.2,56.3z"/><path d="M64.6,49.3c-1.5,0.9-2.8,1.8-4.2,2.8c-3-3.3-5.7-6.8-8.1-10.6c-1.2-1.9-4.2-0.1-3,1.8c2.9,4.4,6.1,8.5,9.7,12.4   c0.7,0.7,1.8,0.7,2.5,0c1.6-1.2,3.2-2.3,5-3.4C68.3,51.2,66.6,48.1,64.6,49.3z"/><path d="M73.9,41.4c-1.6,1.2-3.2,2.2-4.8,3.5L69,44.9c-0.1-0.1-0.2-0.2-0.3-0.3c-0.1-0.5-1-1.3-1.3-1.7c-0.4-0.5-0.8-1-1.2-1.5   l4.4-3.8c1.7-1.5-0.8-3.9-2.5-2.5L64,38.9c-0.9-1-1.8-1.9-2.7-2.9c1.4-1.3,2.9-2.5,4.5-3.4c1.9-1.2,0.2-4.2-1.8-3   c-2.3,1.4-4.4,3.2-6.3,5.1c-0.2,0.2-0.4,0.6-0.5,0.9c-0.2,0.6-0.1,1.3,0.4,1.7c1.8,1.8,3.6,3.6,5.3,5.6c1.4,1.7,2.6,3.9,4.2,5.3   c2.6,2.3,6.6-2.3,8.6-3.8C77.5,43.1,75.7,40,73.9,41.4z"/></g></svg>