<?xml version="1.0" encoding="iso-8859-1"?>
<!-- Generator: Adobe Illustrator 19.0.0, SVG Export Plug-In . SVG Version: 6.00 Build 0)  -->
<svg version="1.1" id="Layer_1" xmlns="http://www.w3.org/2000/svg" xmlns:xlink="http://www.w3.org/1999/xlink" x="0px" y="0px"
	 viewBox="0 0 500 500" style="enable-background:new 0 0 500 500;" xml:space="preserve">
<g>
	<g>
		<path d="M363.08,50.54H116.804c-2.208,0-4,1.788-4,4c0,2.212,1.792,4,4,4h246.28c2.208,0,3.996-1.788,3.996-4
			C367.08,52.328,365.288,50.54,363.08,50.54z"/>
	</g>
</g>
<g>
	<g>
		<path d="M495.996,81.812H323.992c-2.208,0-4,1.788-4,4c0,2.212,1.792,4,4,4h172.004c2.212,0,4-1.788,4-4
			C499.996,83.6,498.204,81.812,495.996,81.812z"/>
	</g>
</g>
<g>
	<g>
		<path d="M280.992,81.812H116.804c-2.208,0-4,1.788-4,4c0,2.212,1.792,4,4,4h164.188c2.212,0,4-1.788,4-4
			C284.992,83.6,283.2,81.812,280.992,81.812z"/>
	</g>
</g>
<g>
	<g>
		<path d="M312.264,230.364h-195.46c-2.208,0-4,1.788-4,4c0,2.212,1.792,4,4,4h195.464c2.208,0,3.996-1.788,3.996-4
			C316.264,232.152,314.472,230.364,312.264,230.364z"/>
	</g>
</g>
<g>
	<g>
		<path d="M402.176,230.364h-50.82c-2.208,0-4,1.788-4,4c0,2.212,1.792,4,4,4h50.82c2.208,0,4-1.788,4-4
			C406.176,232.152,404.384,230.364,402.176,230.364z"/>
	</g>
</g>
<g>
	<g>
		<path d="M496,261.636H261.448c-2.208,0-4,1.788-4,4c0,2.212,1.792,4,4,4h234.548c2.212,0,4.004-1.788,4.004-4
			S498.208,261.636,496,261.636z"/>
	</g>
</g>
<g>
	<g>
		<path d="M218.444,261.636h-101.64c-2.208,0-4,1.788-4,4c0,2.212,1.792,4,4,4h101.64c2.208,0,4-1.788,4-4
			S220.652,261.636,218.444,261.636z"/>
	</g>
</g>
<g>
	<g>
		<path d="M363.08,414.092H116.804c-2.208,0-4,1.788-4,4c0,2.212,1.792,4,4,4h246.28c2.208,0,3.996-1.788,3.996-4
			C367.08,415.88,365.288,414.092,363.08,414.092z"/>
	</g>
</g>
<g>
	<g>
		<path d="M495.996,445.368H323.992c-2.208,0-4,1.788-4,4c0,2.212,1.792,4,4,4h172.004c2.212,0,4-1.788,4-4
			C499.996,447.156,498.204,445.368,495.996,445.368z"/>
	</g>
</g>
<g>
	<g>
		<path d="M280.992,445.368H116.804c-2.208,0-4,1.788-4,4c0,2.212,1.792,4,4,4h164.188c2.212,0,4-1.788,4-4
			C284.992,447.156,283.2,445.368,280.992,445.368z"/>
	</g>
</g>
<g>
	<g>
		<path d="M35.288,398.552C15.832,398.552,0,414.38,0,433.832c0,19.456,15.828,35.288,35.288,35.288
			c19.452,0,35.28-15.832,35.28-35.288C70.568,414.38,54.744,398.552,35.288,398.552z M35.288,461.12
			C20.244,461.12,8,448.88,8,433.832c0-15.04,12.24-27.28,27.288-27.28c15.04,0,27.28,12.236,27.28,27.28
			S50.332,461.12,35.288,461.12z"/>
	</g>
</g>
<g>
	<g>
		<path d="M35.288,210.76C15.832,210.76,0,226.592,0,246.048c0,19.452,15.828,35.276,35.288,35.276
			c19.452,0,35.28-15.824,35.28-35.276C70.568,226.592,54.744,210.76,35.288,210.76z M35.288,273.32
			C20.244,273.32,8,261.084,8,246.044C8,231,20.24,218.756,35.288,218.756c15.04,0,27.28,12.244,27.28,27.288
			C62.568,261.08,50.332,273.32,35.288,273.32z"/>
	</g>
</g>
<g>
	<g>
		<path d="M35.288,30.88C15.828,30.88,0,46.712,0,66.168c0,19.456,15.828,35.288,35.288,35.288c19.452,0,35.28-15.832,35.28-35.288
			S54.744,30.88,35.288,30.88z M35.288,93.456C20.244,93.456,8,81.212,8,66.168C8,51.124,20.24,38.88,35.288,38.88
			c15.04,0,27.28,12.244,27.28,27.288C62.568,81.212,50.332,93.456,35.288,93.456z"/>
	</g>
</g>
<g>
</g>
<g>
</g>
<g>
</g>
<g>
</g>
<g>
</g>
<g>
</g>
<g>
</g>
<g>
</g>
<g>
</g>
<g>
</g>
<g>
</g>
<g>
</g>
<g>
</g>
<g>
</g>
<g>
</g>
</svg>
