<svg xmlns="http://www.w3.org/2000/svg" viewBox="0 0 21 25.758">
    <defs>
        <style>
            .cls-1{fill:#0a3251}
        </style>
    </defs>
    <g id="noun_Shopping_Bag_1828098" data-name="noun_Shopping Bag_1828098" transform="translate(-6.04 -35)">
        <g id="Group_131" data-name="Group 131" transform="translate(4.04 31)">
            <path id="Path_152" d="M83.046 31a5.809 5.809 0 0 0-5.8 5.8v.78H73.6a1.03 1.03 0 0 0-1.024 1.142c.01.091 1 9.188 1.536 14.056a4.459 4.459 0 0 0 4.438 3.977h9.036a4.459 4.459 0 0 0 4.434-3.975l1.539-14.054a1.03 1.03 0 0 0-1.024-1.143h-3.686V36.8a5.809 5.809 0 0 0-5.803-5.8zM79.3 36.8a3.742 3.742 0 0 1 7.484 0v.78H79.3zm12.081 2.841l-1.41 12.914a2.4 2.4 0 0 1-2.39 2.142h-9.036a2.4 2.4 0 0 1-2.39-2.142c-.421-3.837-1.127-10.3-1.411-12.913h2.5v2.848a1.03 1.03 0 1 0 2.061 0v-2.847h7.484v2.848a1.03 1.03 0 1 0 2.061 0v-2.848z" class="cls-1" data-name="Path 152" transform="translate(-70.565 -27)"/>
        </g>
    </g>
</svg>
