<svg xmlns="http://www.w3.org/2000/svg" viewBox="0 0 48 48">
    <defs>
        <style>
            .cls-1{fill:#fff}.cls-2,.cls-3{fill:#90aeff}.cls-3{stroke:#fff;stroke-width:2px}
        </style>
    </defs>
    <g id="Icon" transform="translate(-111 -2381.772)">
        <path id="Rectangle_193" d="M0 0h48v48H0z" class="cls-1" data-name="Rectangle 193" transform="translate(111 2381.772)"/>
        <g id="reply" transform="translate(139.482 2361.849)">
            <g id="icon_2_" data-name="icon (2)" transform="translate(-15.603 27.94)">
                <path id="Path_6" d="M21.586 0H8.256a2.281 2.281 0 0 0-2.305 2.257v26.476a2.28 2.28 0 0 0 2.305 2.255h13.33a2.281 2.281 0 0 0 2.305-2.255V2.257A2.282 2.282 0 0 0 21.586 0zm-9.954 1.371h6.58c.166 0 .3.243.3.543s-.135.544-.3.544h-6.58c-.167 0-.3-.244-.3-.544s.133-.543.3-.543zm3.29 27.389a1.44 1.44 0 1 1 1.47-1.441 1.458 1.458 0 0 1-1.47 1.441zm7.242-4.933H7.679V3.809h14.485z" class="cls-2" data-name="Path 6" transform="translate(-5.951)"/>
            </g>
            <path id="Path_81" d="M14.709 33.533q-1.371-3.409-7.4-3.409H5.413v-2.166a.538.538 0 0 0-.922-.381l-4.33 4.331a.531.531 0 0 0 0 .761L4.491 37a.541.541 0 0 0 .922-.381v-2.165h1.895q.829 0 1.484.051a10.7 10.7 0 0 1 1.3.182 4.835 4.835 0 0 1 1.125.36 3.982 3.982 0 0 1 .892.588 2.947 2.947 0 0 1 .677.854 4.6 4.6 0 0 1 .41 1.171 7.2 7.2 0 0 1 .148 1.531q0 .465-.042 1.04a1.733 1.733 0 0 1-.021.2 1.741 1.741 0 0 0-.021.224.316.316 0 0 0 .072.211.247.247 0 0 0 .2.084.289.289 0 0 0 .237-.144.967.967 0 0 0 .11-.186q.051-.11.114-.254c.042-.1.072-.163.089-.2a10.156 10.156 0 0 0 1.074-3.815 7.7 7.7 0 0 0-.447-2.818z" class="cls-3" data-name="Path 81" transform="translate(-7.825 15.355)"/>
        </g>
    </g>
</svg>
