<?xml version="1.0" ?><svg style="enable-background:new 0 0 128 128;" version="1.1" viewBox="0 0 128 128" xml:space="preserve" xmlns="http://www.w3.org/2000/svg" xmlns:xlink="http://www.w3.org/1999/xlink"><g id="Layer_1"/><g id="refrigerator"/><g id="washer"/><g id="tv"/><g id="microwawe"/><g id="vacuum_cleaner"/><g id="Gift"/><g id="umbrella"/><g id="rocket"/><g id="basket"/><g id="shopping"/><g id="email"/><g id="message"/><g id="delivery"/><g id="store"/><g id="label"/><g id="phone"/><g id="imac"/><g id="laptop"/><g id="heart_like"/><g id="game"/><g id="wallet"/><g id="camera"/><g id="battery"/><g id="shoes"/><g id="t-shirt"/><g id="pencil"/><g id="people"/><g id="statistics"/><g id="blog"/><g id="rock"/><g id="like"/><g id="dislike"/><g id="speaker"/><g id="pc"/><g id="glasses"/><g id="headphones"/><g id="player"/><g id="book"/><g id="transfer"/><g id="mouse"/><g id="package"/><g id="exellent"/><g id="card"/><g id="induction"/><g id="revers_camera"/><g id="flesh_drive"/><g id="time"/><g id="sale"><g><g><path d="M34.998,121c-0.31,0-0.624-0.072-0.918-0.225c-0.981-0.508-1.364-1.715-0.855-2.695l57-110     c0.507-0.981,1.716-1.365,2.695-0.856c0.981,0.508,1.364,1.715,0.855,2.696l-57,110C36.42,120.606,35.722,121,34.998,121z" style="fill:#505070;"/></g><g><path d="M40,55c-13.233,0-24-10.767-24-24S26.767,7,40,7s24,10.767,24,24S53.233,55,40,55z M40,11     c-11.028,0-20,8.972-20,20s8.972,20,20,20s20-8.972,20-20S51.028,11,40,11z" style="fill:#505070;"/></g><g><path d="M88,121c-13.233,0-24-10.767-24-24s10.767-24,24-24s24,10.767,24,24S101.233,121,88,121z M88,77     c-11.028,0-20,8.972-20,20s8.972,20,20,20s20-8.972,20-20S99.028,77,88,77z" style="fill:#505070;"/></g></g></g><g id="tablet"/><g id="search"/></svg>