<?xml version="1.0" encoding="iso-8859-1"?>
<!-- Generator: Adobe Illustrator 16.0.0, SVG Export Plug-In . SVG Version: 6.00 Build 0)  -->
<!DOCTYPE svg PUBLIC "-//W3C//DTD SVG 1.1//EN" "http://www.w3.org/Graphics/SVG/1.1/DTD/svg11.dtd">
<svg version="1.1" id="Capa_1" xmlns="http://www.w3.org/2000/svg" xmlns:xlink="http://www.w3.org/1999/xlink" x="0px" y="0px"
	 width="24.167px" height="24.168px" viewBox="0 0 94.167 94.168" style="enable-background:new 0 0 94.167 94.168;"
	 xml:space="preserve">
<g>
	<path fill="red" d="M65.402,94.168H28.765c-3.981,0-7.22-3.238-7.22-7.22V7.22c0-3.98,3.239-7.22,7.22-7.22h36.637
		c3.981,0,7.222,3.238,7.222,7.22v79.729C72.623,90.93,69.383,94.168,65.402,94.168z M28.765,1c-3.43,0-6.22,2.79-6.22,6.22v79.729
		c0,3.43,2.79,6.22,6.22,6.22h36.637c3.431,0,6.222-2.79,6.222-6.22V7.22c0-3.43-2.791-6.22-6.222-6.22H28.765z M49.429,90.758
		h-4.691c-1.761,0-3.193-1.432-3.193-3.191s1.433-3.192,3.193-3.192h4.691c1.762,0,3.193,1.433,3.193,3.192
		S51.189,90.758,49.429,90.758z M44.737,85.373c-1.209,0-2.193,0.982-2.193,2.191s0.984,2.192,2.193,2.192h4.692
		c1.209,0,2.192-0.983,2.192-2.192s-0.983-2.191-2.192-2.191H44.737z M69.777,83.248H24.391V10.92h45.386V83.248z M25.391,82.248
		h43.386V11.92H25.391V82.248z M51.58,6.172h-8.991c-0.461,0-0.836-0.375-0.836-0.836S42.127,4.5,42.588,4.5h8.991
		c0.461,0,0.836,0.375,0.836,0.836S52.041,6.172,51.58,6.172z M42.587,5c-0.186,0-0.336,0.15-0.336,0.336s0.151,0.336,0.336,0.336
		h8.991c0.187,0,0.336-0.15,0.336-0.336S51.763,5,51.579,5H42.587z M33.941,6.523c-0.655,0-1.188-0.532-1.188-1.188
		s0.533-1.188,1.188-1.188c0.655,0,1.188,0.532,1.188,1.188S34.597,6.523,33.941,6.523z M33.941,4.648
		c-0.379,0-0.688,0.309-0.688,0.688s0.309,0.688,0.688,0.688s0.688-0.309,0.688-0.688S34.32,4.648,33.941,4.648z M29.691,7.086
		c-0.965,0-1.75-0.785-1.75-1.75s0.785-1.75,1.75-1.75c0.965,0,1.75,0.785,1.75,1.75S30.657,7.086,29.691,7.086z M29.691,4.086
		c-0.689,0-1.25,0.561-1.25,1.25s0.561,1.25,1.25,1.25s1.25-0.561,1.25-1.25S30.381,4.086,29.691,4.086z"/>
</g>


</svg>
