<svg xmlns="http://www.w3.org/2000/svg" viewBox="0 0 22.266 19.789">
  <defs>
    <style>
      .cls-1 {
        fill: #f5f5f5;
      }

      .cls-2 {
        fill: #0a3251;
      }
    </style>
  </defs>
  <g id="Icon" transform="translate(-103 -301)">
    <path id="Path_5" data-name="Path 5" class="cls-1" d="M4.136-.026H20.618a1.648,1.648,0,0,1,1.648,1.648L19.778,18.114a1.648,1.648,0,0,1-1.648,1.648H1.648A1.648,1.648,0,0,1,0,18.114L2.488,1.622A1.648,1.648,0,0,1,4.136-.026Z" transform="translate(103 301.026)"/>
    <g id="noun_Tablet_1830538" transform="translate(107.285 116.874)">
      <path id="Path_181" data-name="Path 181" class="cls-2" d="M65.853,189.454a1.19,1.19,0,0,1,.881.329,1.171,1.171,0,0,1,.294.832v.573q0,.5-.007,1.21t-.007,1.525q0,.818-.007,1.532T67,196.685v.615a1.107,1.107,0,0,1-.259.748.808.808,0,0,1-.636.3H55.391a1.165,1.165,0,0,1-.783-.329,1.07,1.07,0,0,1-.336-.818v-6.574a1.25,1.25,0,0,1,.077-.434,1.191,1.191,0,0,1,.224-.378,1.153,1.153,0,0,1,.357-.273,1.081,1.081,0,0,1,.49-.1h7.007q.9,0,1.615.007t1.21.007Zm-.615,1.315H55.755l.014,6.182,9.455-.014Zm.923,2.6a.509.509,0,0,0-.364.147.49.49,0,0,0,0,.713.524.524,0,0,0,.727,0,.49.49,0,0,0,0-.713A.509.509,0,0,0,66.16,193.37Z" transform="translate(-53.438)"/>
    </g>
  </g>
</svg>
