<svg xmlns="http://www.w3.org/2000/svg" width="31.865" height="31.865"><g fill="silver"><path d="M26.603 23.643l-9.712 5.607v-7.236l-.31.155a1.85 1.85 0 01-.647.121c-.21 0-.424-.04-.639-.118l-.052-.007-.168-.078-.099-.05v7.213l-9.712-5.607v-6.496l-1.914-.963v8.012c0 .342.183.658.479.828l11.626 6.714a.958.958 0 00.958 0l11.625-6.714a.953.953 0 00.479-.828v-8.014l-1.914.959v6.502zM16.626 4.459l-.394-.129a.97.97 0 00-.598 0l-.393.129c.256.588.488 1.177.691 1.737.205-.56.439-1.149.694-1.737z"/><path d="M29.854 9.475l.002-.019c-.001-.02-.01-.039-.012-.059a.995.995 0 00-.071-.274.93.93 0 00-.083-.152c-.019-.026-.034-.052-.055-.076a.92.92 0 00-.13-.127c-.021-.018-.041-.039-.064-.055-.006-.003-.009-.009-.015-.013a.927.927 0 00-.222-.107l-.006-.003-2.406-.791c-.111.123-.223.24-.328.346-1.1 1.1-2.956 2.016-4.678 2.697l2.049.832v4.72l-2.84 1.432v-4.931l-3.252-1.719c.84-.226 6.019-1.682 8.043-3.708.592-.59 1.371-1.505 1.32-2.633-.05-1.125-.836-1.784-1.468-2.313-.181-.151-.373-.311-.558-.493-.183-.183-.342-.376-.494-.558-.52-.62-1.229-1.47-2.416-1.47-1.084 0-1.963.754-2.529 1.321-2.029 2.029-3.484 7.217-3.709 8.049-.224-.829-1.68-6.02-3.71-8.049C11.656.754 10.777 0 9.694 0 8.507 0 7.797.85 7.277 1.47c-.151.181-.31.374-.493.557-.183.183-.377.342-.557.494-.633.53-1.419 1.188-1.469 2.314-.05 1.127.729 2.043 1.32 2.633 2.025 2.027 7.21 3.483 8.046 3.708l-3.254 1.719v4.931l-2.84-1.432v-4.72l2.051-.833c-1.724-.682-3.582-1.598-4.68-2.697a10.367 10.367 0 01-.328-.346l-2.405.791-.006.002a1.01 1.01 0 00-.222.108c-.006.003-.009.009-.015.013-.024.017-.043.037-.065.055-.047.04-.091.08-.129.126-.021.024-.037.05-.055.077a.973.973 0 00-.083.152c-.012.029-.024.057-.033.087a.846.846 0 00-.037.188c-.003.02-.012.038-.013.059l.002.019-.003.024v4.348c0 .362.204.692.526.854l12.966 6.529c.014.007.028.004.043.01a.956.956 0 00.388.092.956.956 0 00.388-.092c.016-.006.029-.003.043-.01l12.967-6.529a.959.959 0 00.525-.854V9.499c.002-.007-.001-.016-.001-.024zm-9.196-7.137c1.868-1.868 2.273-.431 3.411.706 1.136 1.137 2.572 1.542.704 3.41-1.867 1.868-7.47 3.355-7.47 3.355s1.486-5.603 3.355-7.471zm-12.859.705c1.137-1.136 1.542-2.573 3.41-.705 1.869 1.869 3.355 7.471 3.355 7.471S8.961 8.323 7.093 6.455c-1.868-1.868-.43-2.274.706-3.412z"/></g></svg>