<svg xmlns="http://www.w3.org/2000/svg" viewBox="0 0 48 48"><path d="M0 0h48v48H0z" data-name="Rectangle 193" fill="#fff"/><path d="M31.901 16.783l-1.806-7.741a.6.6 0 00-.387-.439.565.565 0 00-.568.077l-5.082 3.562-5.083-3.587a.573.573 0 00-.568-.077.66.66 0 00-.387.439l-1.806 7.741a.631.631 0 00.619.774.52.52 0 00.284-.077l3.3-1.78 1.141 3.972-1.81 16.156a.567.567 0 00.232.542l3.664 3.019a.543.543 0 00.387.129.7.7 0 00.387-.129l3.612-2.967a.684.684 0 00.155-.129.571.571 0 00.155-.49l-1.7-16.152 1.135-3.974 3.3 1.78a.673.673 0 00.284.077.768.768 0 00.387-.129.58.58 0 00.155-.597zm-12.9-6.58l3.87 2.709-2.4 1.29-2.761 1.5zm8.025 25.39l-3.019 2.5-3.019-2.477 1.729-15.378h2.709zm-1.524-16.59h-2.89l-1.11-3.922 2.556-1.369 2.554 1.368zm2.116-4.773l-2.4-1.29 3.87-2.709 1.29 5.522z" data-name="Path 280" fill="#335eea" stroke="#335eea" stroke-width=".5"/></svg>