<svg xmlns="http://www.w3.org/2000/svg" viewBox="0 0 48 48"><defs><style>.cls-2{fill:#335eea}</style></defs><g id="Icon" transform="translate(-111 -2381.772)"><path id="Rectangle_193" d="M0 0h48v48H0z" data-name="Rectangle 193" transform="translate(111 2381.772)" fill="#fff"/><g id="noun_delivery_952396" transform="translate(121.915 2326.074)"><g id="Group_153" data-name="Group 153" transform="translate(-8 67)"><path id="Path_203" d="M46.611 34.093L43.193 29a3.241 3.241 0 00-2.763-1.383h-5.47c-.378 0-.912-.117-.912.013v-2.468A3.366 3.366 0 0030.522 22H6.11c-.61 0-1.11.324-1.11.937s.5.937 1.11.937h24.412a1.34 1.34 0 011.183 1.288v17.921h-4.679a4.13 4.13 0 00-5.446-3.12 3.911 3.911 0 00-3.12 3.12h-.144a1.339 1.339 0 01-1.134-1.329v-5.5a1.173 1.173 0 00-2.343 0v5.5a3.354 3.354 0 003.477 3.2h.155a4.458 4.458 0 005.447 3.12 3.911 3.911 0 003.12-3.12h8.077a4.458 4.458 0 005.447 3.12 3.911 3.911 0 003.12-3.12h.155a3.224 3.224 0 003.329-3.2v-5.875a3.327 3.327 0 00-.555-1.786zm-23.857 12.1a2.219 2.219 0 112.219-2.219 2.219 2.219 0 01-2.219 2.219zm16.644 0a2.219 2.219 0 112.219-2.219 2.219 2.219 0 01-2.217 2.219zm5.548-4.329a1.209 1.209 0 01-1.109 1.22h-.167a4.13 4.13 0 00-5.446-3.12 3.91 3.91 0 00-3.12 3.12h-1.056v-12.32c0-.613.3-1.267.912-1.267h5.47a1.194 1.194 0 01.921.567l3.418 5.166a1.356 1.356 0 01.188.674z" class="cls-2" data-name="Path 203" transform="translate(-5 -22)"/><path id="Path_204" d="M26.531 32.171A1.163 1.163 0 0025.422 31H13.215a1.173 1.173 0 000 2.343h12.207a1.164 1.164 0 001.109-1.172z" class="cls-2" data-name="Path 204" transform="translate(-8.777 -26.783)"/><path id="Path_205" d="M30.307 41.937c0-.613-.5-.937-1.109-.937H20.32c-.613 0-1.11.324-1.11.937s.5.937 1.11.937h8.88c.61 0 1.107-.324 1.107-.937z" class="cls-2" data-name="Path 205" transform="translate(-12.552 -32.098)"/></g></g></g></svg>