<svg xmlns="http://www.w3.org/2000/svg" width="18" height="11" viewBox="0 0 137.218 137.218"><path d="M106.608 74.152l.548-.361a2.33 2.33 0 00.579-3.253 2.34 2.34 0 00-3.253-.583c-36.537 25.544-63.133 1.257-64.25.213a2.345 2.345 0 00-3.307.1 2.338 2.338 0 00.094 3.298c.05.048.882.81 2.4 1.936l-4.68 7.719a2.343 2.343 0 00.785 3.211 2.348 2.348 0 003.216-.78l4.576-7.54a56.112 56.112 0 009.776 4.709l-2.255 7.54a2.324 2.324 0 001.558 2.906l.673.1a2.34 2.34 0 002.233-1.67l2.233-7.436a53 53 0 0012.035 1.816v7.469a2.333 2.333 0 002.336 2.336 2.333 2.333 0 002.335-2.336v-7.51c3.812-.21 7.852-.865 12.07-2.068l2.875 7.582a2.342 2.342 0 002.184 1.506l.826-.148a2.336 2.336 0 001.36-3.011l-2.8-7.387c3.84-1.427 7.81-3.305 11.91-5.796l3.785 5.051a2.35 2.35 0 001.868.938c.49 0 .979-.148 1.399-.469a2.337 2.337 0 00.474-3.27l-3.583-4.812zm5.067-18.272s-.931-1.352-2.899-3.158c-.962-.953-2.223-1.912-3.698-3.024-1.502-1-3.207-2.185-5.183-3.188a45.426 45.426 0 00-6.54-2.859c-2.368-.934-4.976-1.482-7.694-1.975-2.73-.343-5.61-.407-8.515-.28-2.915.247-5.829.25-8.766.607-2.92.245-5.824.511-8.657 1.074-1.42.246-2.826.444-4.196.748l-4.025 1.108a48.326 48.326 0 00-7.43 2.488c-2.323.886-4.476 1.778-6.363 2.859-1.91 1.008-3.66 1.87-5.165 2.735-1.432.976-2.689 1.824-3.723 2.522-2.016 1.411-3.169 2.22-3.169 2.22l-.255.799c.118.37.516.565.89.44l.075-.027s1.305-.445 3.602-1.225c1.124-.394 2.496-.875 4.06-1.429 1.591-.454 3.433-.854 5.39-1.342 1.93-.556 4.1-.885 6.391-1.163 1.122-.163 2.28-.34 3.465-.515 1.196-.127 2.428-.158 3.66-.248 1.238-.078 2.488-.155 3.754-.233 1.274.007 2.566.018 3.86.03 2.572-.076 5.206.149 7.819.378 5.222.366 10.289 2.084 15.046 2.879 4.78.794 9.373 1.016 13.426 1.239 4.066.115 7.568.193 10.136.067 2.555-.093 4.125-.251 4.125-.251l.386-.148a.814.814 0 00.193-1.127z" data-original="#000000" class="active-path"/></svg>