<svg xmlns="http://www.w3.org/2000/svg" viewBox="0 0 48 48"><path fill="#fff" d="M0 0h48v48H0z" data-name="Rectangle 193"/><g data-name="Group 14"><path d="M41.073 24.037l-2.916-3.8.652-4.72-4.451-1.764-1.765-4.451-4.72.652L24.037 7l-3.8 2.916-4.719-.652-1.765 4.451L9.3 15.48l.652 4.72L7 24.037l2.916 3.8-.652 4.72 4.451 1.765 1.765 4.449 4.72-.652 3.8 2.916 3.8-2.916 4.72.652 1.765-4.451 4.451-1.8-.652-4.72zm-18.418 5.525l-5.679-4.681 1.228-1.5 4.221 3.453 7.214-8.326 1.461 1.27z" data-name="Path 31" fill="none" stroke="#335eea" stroke-width="2"/></g></svg>