<svg id="Layer_1" version="1.1" viewBox="0 0 100 100" xml:space="preserve" xmlns="http://www.w3.org/2000/svg"><style>.st0{fill:none}</style><path class="st0" d="M43.1 51.6c.3.8.6 1.7 1 2.5.3.7.7 1.5 1.1 2.2.9-.8 1.7-1.5 2.6-2.2-1.3-1-3.2-2.5-4.6-2.7-.5-.4-.6-.4-.1.2z"/><path class="st0" d="M84.3 45.7c-.3-.5-.3-1.2.1-1.7 3.3-4.1 5.6-8.9 6.9-14.1-2.6-.6-5.3-1.2-8-1.7-2.8-.6-5.6-1.1-8.4-1.7-.7-.1-1.3-.8-1.2-1.6.2-1.7.3-3.4.3-5.1 0-1.3-.1-2.7-.2-4.1-.2-2.7-.7-5.3-1.4-7.9C66.7 10 61.6 13.1 57 17c-.6.5-1.4.4-2-.1-1.9-1.8-3.9-3.7-6.1-5.6-2.2-1.9-4.4-3.7-6.6-5.3-1.5 2.3-3 4.7-4.5 7.2-1.3 2.2-2.6 4.3-3.8 6.4-.3.5-.9.8-1.5.7-2.6-.4-5.5-.7-8.5-1-2.6-.2-5.1-.3-7.5-.3.4 2.6.9 5.3 1.5 8.2.6 2.9 1.4 5.6 2.1 8.1.2.6-.1 1.3-.6 1.7-2.3 1.4-4.6 2.8-6.9 4.3-2.3 1.5-4.6 2.9-6.8 4.4 1.5 1.8 3.1 3.8 5 5.7 2 2.1 4.1 4 6.3 5.9.5.4.6 1 .4 1.6-1 2.6-2.1 5.2-3.4 8-1.1 2.3-2.2 4.5-3.3 6.6h.8c1.9 0 3.9.1 6 .2 2.7.2 5.4.6 8 1.1.6.1 1.1.6 1.2 1.2.5 2.8.9 5.7 1.3 8.7.3 2.6.5 5.2.7 7.6 2.2-1.2 4.5-2.5 6.7-3.8 2.9-1.7 5.6-3.4 8.3-5.1.5-.3 1.2-.3 1.6.1 1.8 1.3 3.6 2.7 5.4 4.2 2.5 2.1 4.7 4.1 6.7 6.1L67 82.7c.3-.4.8-.6 1.4-.5L83 84.9c-.5-2.8-.9-5.6-1.1-8.4-.2-2-.2-3.9-.2-5.6V69c0-.5.2-.9.6-1.2 2-1.4 4-2.9 6.1-4.5 2-1.6 3.9-3.2 5.6-4.7-1.8-2.1-3.7-4.3-5.5-6.8-1.5-2.1-2.9-4.2-4.2-6.1zM41.2 70.4C39 72.6 36 73 33 72.8c-2.2-.1-2.2-3.6 0-3.5 2 .1 5 .2 6.1-1.9 1.2-2.3-1.8-2.7-3.3-2.4-.9.2-1.7.7-2.6 1-2.4.7-5.1.4-6.6-1.8-1.4-2.1-1.3-4.8.2-6.8 1.7-2.4 4.6-3.1 7.4-3 2.2.1 2.2 3.6 0 3.5-1.8-.1-6.1.7-5.1 3.6.9 2.8 5 .3 6.7-.1 2.4-.6 5.1-.1 6.4 2.3 1.3 2.3.8 5-1 6.7zm12.5-11.6c-1-.9-2-1.8-3-2.6-1.3 1.1-2.6 2.1-3.9 3.3.6 1.1 1.2 2.1 1.7 3.2 1.1 2-1.9 3.7-3 1.8-2-3.4-3.8-6.9-5.3-10.5-.7-1.8-1.8-5 .4-6.3 2.2-1.3 5.6 1.4 7.4 2.5 2.9 1.8 5.6 3.9 8.1 6.3 1.7 1.4-.8 3.8-2.4 2.3zm12.7-6.5c-1.7 1-3.4 2.1-5 3.4-.7.7-1.8.7-2.5 0-3.6-3.8-6.8-8-9.7-12.4-1.2-1.9 1.8-3.6 3-1.8 2.4 3.7 5.2 7.3 8.1 10.6 1.4-1 2.7-1.9 4.2-2.8 2.1-1.2 3.8 1.9 1.9 3zm9.3-7.9c-2 1.5-6 6.1-8.6 3.8-1.6-1.4-2.8-3.7-4.2-5.3-1.7-2-3.4-3.8-5.3-5.6-.5-.4-.6-1.1-.4-1.7.1-.3.2-.7.5-.9 1.9-2 4-3.7 6.3-5.1 1.9-1.2 3.7 1.8 1.8 3-1.6 1-3.1 2.2-4.5 3.4.9.9 1.8 1.9 2.7 2.9l4.2-3.6c1.7-1.5 4.2 1 2.5 2.5l-4.4 3.8 1.2 1.5c.3.4 1.2 1.2 1.3 1.7l.3.3.2-.1c1.5-1.2 3.2-2.3 4.8-3.5 1.6-1.5 3.4 1.6 1.6 2.9z"/><path d="M97.2 57.7c-2.1-2.3-4.2-4.9-6.3-7.7-1.3-1.7-2.5-3.4-3.6-5.1 3.5-4.7 6-10.1 7.1-15.9.1-.8-.3-1.5-1.1-1.7-3.1-.7-6.3-1.4-9.5-2.1-2.4-.5-4.8-1-7.1-1.4.1-1.2.2-2.6.2-4.1 0-1.4-.1-2.8-.2-4.4-.3-3.4-1-6.7-2-10-.2-.8-1.1-1.2-1.8-1h-.1c-6 2.2-11.7 5.4-16.7 9.4-1.6-1.6-3.4-3.2-5.3-4.8-2.7-2.4-5.4-4.5-8-6.4-.6-.5-1.6-.3-2 .3l-.1.1c-1.8 2.8-3.6 5.6-5.3 8.6-1.1 1.9-2.3 3.8-3.3 5.6-2.4-.3-5-.6-7.7-.8-3.2-.2-6.2-.3-9-.3H15c-.8 0-1.4.7-1.4 1.5v.2c.4 3.1 1 6.5 1.8 10.1.6 2.6 1.2 5 1.9 7.3-2 1.2-4 2.4-6 3.7-2.8 1.8-5.5 3.5-8.2 5.3-.7.4-.9 1.3-.4 2 0 0 0 .1.1.1 1.9 2.5 4 4.9 6.2 7.2 2 2 3.9 3.8 5.7 5.4-.9 2.2-1.8 4.5-2.9 6.9-1.4 3.1-2.9 6-4.4 8.6-.4.7-.1 1.6.6 2 .2.1.5.2.8.2 1 0 2.1-.1 3.2-.1 1.8 0 3.8.1 5.8.2 2.4.2 4.7.5 6.7.8.4 2.4.8 4.9 1.1 7.5.4 3.4.7 6.7.9 9.8 0 .8.7 1.4 1.5 1.4.2 0 .4-.1.6-.2 2.9-1.5 5.8-3.2 8.8-4.9 2.6-1.5 5.1-3.1 7.5-4.6 1.5 1.1 3 2.3 4.5 3.5 2.8 2.4 5.4 4.7 7.6 7 .6.6 1.5.6 2.1 0l-.1.1c3.3-3.9 6.6-7.8 9.9-11.6l15.6 2.8c.8.1 1.5-.4 1.7-1.2v-.6c-.7-3.3-1.2-6.7-1.5-10.1-.1-1.9-.2-3.7-.2-5.4v-1.1c1.8-1.3 3.7-2.7 5.7-4.2 2.5-2 4.8-3.9 6.8-5.8.7-.6.7-1.5.2-2.1zm-8.7 5.6c-2.1 1.7-4.2 3.2-6.1 4.5-.4.3-.6.7-.6 1.2v1.9c0 1.8.1 3.7.2 5.6.2 2.8.6 5.6 1.1 8.4l-14.3-2.5c-.5-.1-1 .1-1.4.5L57.9 94c-2-2-4.3-4-6.7-6.1-1.8-1.5-3.6-2.9-5.4-4.2-.5-.4-1.1-.4-1.6-.1-2.6 1.7-5.4 3.4-8.3 5.1-2.3 1.3-4.5 2.6-6.7 3.8-.2-2.5-.4-5-.7-7.6-.4-3-.8-6-1.3-8.7-.1-.6-.6-1.1-1.2-1.2-2.7-.5-5.3-.8-8-1.1-2.1-.2-4.1-.2-6-.2h-.8c1.1-2.1 2.2-4.3 3.3-6.6 1.3-2.8 2.4-5.5 3.4-8 .2-.6 0-1.2-.4-1.6-2.2-1.9-4.3-3.8-6.3-5.9-1.9-2-3.5-3.9-5-5.7 2.2-1.5 4.5-2.9 6.8-4.4 2.3-1.5 4.6-2.9 6.9-4.3.6-.3.8-1 .6-1.7-.8-2.5-1.5-5.2-2.1-8.1-.6-2.9-1.1-5.6-1.5-8.2 2.4 0 4.8.1 7.5.3 3 .2 5.8.6 8.5 1 .6.1 1.2-.2 1.5-.7 1.2-2.1 2.5-4.3 3.8-6.4 1.5-2.5 3-4.9 4.5-7.2 2.1 1.6 4.3 3.4 6.6 5.3 2.2 1.9 4.2 3.8 6.1 5.6.5.5 1.4.6 2 .1 4.6-3.9 9.8-7 15.4-9.2.7 2.6 1.2 5.2 1.4 7.9.1 1.5.2 2.8.2 4.1 0 1.7-.1 3.4-.3 5.1-.1.8.4 1.4 1.2 1.6 2.8.5 5.6 1.1 8.4 1.7 2.7.6 5.4 1.1 8 1.7-1.7 4.9-4 9.7-7.3 13.9-.4.5-.4 1.2-.1 1.7 1.3 2 2.7 4 4.3 6.1 1.9 2.5 3.7 4.7 5.5 6.8-1.7 1.5-3.6 3.1-5.6 4.7z"/><path d="M35.9 61.5c-1.6.4-5.7 3-6.7.1s3.3-3.7 5.1-3.6c2.2.1 2.2-3.4 0-3.5-2.8-.1-5.7.6-7.4 3-1.5 2-1.6 4.7-.2 6.8 1.5 2.2 4.2 2.4 6.6 1.8.9-.2 1.7-.8 2.6-1 1.5-.3 4.5 0 3.3 2.4-1.1 2.1-4.2 2-6.1 1.9-2.2-.1-2.2 3.3 0 3.5 2.9.2 6-.2 8.2-2.4 1.8-1.8 2.3-4.5 1.1-6.7-1.4-2.5-4.1-2.9-6.5-2.3zM48 50c-1.7-1.1-5.2-3.8-7.4-2.5-2.1 1.3-1.1 4.6-.4 6.3 1.5 3.6 3.3 7.1 5.3 10.5 1.1 2 4.1.2 3-1.8-.6-1.1-1.2-2.1-1.7-3.2 1.3-1.1 2.5-2.2 3.9-3.3 1 .8 2 1.7 3 2.6 1.6 1.5 4.1-.9 2.5-2.5-2.6-2.1-5.3-4.2-8.2-6.1zm-2.8 6.3c-.4-.7-.7-1.5-1.1-2.2-.4-.8-.7-1.6-1-2.5-.4-.5-.4-.6.2-.2 1.3.2 3.3 1.7 4.6 2.7-1 .7-1.9 1.4-2.7 2.2zm19.4-7c-1.5.9-2.8 1.8-4.2 2.8-3-3.3-5.7-6.8-8.1-10.6-1.2-1.9-4.2-.1-3 1.8 2.9 4.4 6.1 8.5 9.7 12.4.7.7 1.8.7 2.5 0 1.6-1.2 3.2-2.3 5-3.4 1.8-1.1.1-4.2-1.9-3zm9.3-7.9c-1.6 1.2-3.2 2.2-4.8 3.5H69l-.3-.3c-.1-.5-1-1.3-1.3-1.7l-1.2-1.5 4.4-3.8c1.7-1.5-.8-3.9-2.5-2.5L64 38.9c-.9-1-1.8-1.9-2.7-2.9 1.4-1.3 2.9-2.5 4.5-3.4 1.9-1.2.2-4.2-1.8-3-2.3 1.4-4.4 3.2-6.3 5.1-.2.2-.4.6-.5.9-.2.6-.1 1.3.4 1.7 1.8 1.8 3.6 3.6 5.3 5.6 1.4 1.7 2.6 3.9 4.2 5.3 2.6 2.3 6.6-2.3 8.6-3.8 1.8-1.3 0-4.4-1.8-3z"/></svg>