<svg xmlns="http://www.w3.org/2000/svg" viewBox="0 0 22.266 19.789"><path data-name="Path 5" d="M4.136 0h16.482a1.648 1.648 0 011.648 1.648L19.778 18.14a1.648 1.648 0 01-1.648 1.648H1.648A1.648 1.648 0 010 18.14L2.488 1.648A1.648 1.648 0 014.136 0z" fill="#f5f5f5"/><g data-name="icon (2)"><path data-name="Path 6" d="M14.689 3.012H8.672a1.03 1.03 0 00-1.041 1.019v11.951A1.029 1.029 0 008.672 17h6.017a1.03 1.03 0 001.041-1.018V4.031a1.03 1.03 0 00-1.041-1.019zm-4.494.619h2.97c.075 0 .136.11.136.245s-.061.246-.136.246h-2.97c-.075 0-.135-.11-.135-.246s.06-.245.135-.245zm1.485 12.363a.65.65 0 11.663-.65.658.658 0 01-.663.65zm3.269-2.227H8.411V4.731h6.539v9.036z" fill="#0a3251"/></g></svg>