<svg xmlns="http://www.w3.org/2000/svg" width="24.383" height="24.383" viewBox="0 0 115.383 115.383"><path fill="gray" d="M11.025 87.78h93.333c1.931 0 3.5-1.57 3.5-3.5v-60c0-1.93-1.569-3.5-3.5-3.5H11.025c-1.93 0-3.5 1.57-3.5 3.5v60c0 1.93 1.571 3.5 3.5 3.5zm-.5-63.5a.5.5 0 01.5-.5h93.333a.5.5 0 01.5.5v60a.5.5 0 01-.5.5H11.025a.5.5 0 01-.5-.5v-60zm104.858 66.178v2.801c0 .742-.602 1.344-1.344 1.344H1.344A1.344 1.344 0 010 93.259v-2.801h47.387c.234.781.95 1.354 1.807 1.354H66.19a1.89 1.89 0 001.807-1.354h47.386z"/></svg>