<svg xmlns="http://www.w3.org/2000/svg" viewBox="0 0 21 25.758"><g data-name="noun_Shopping Bag_1828098"><g data-name="Group 131"><path d="M10.481 0a5.809 5.809 0 00-5.8 5.8v.78H1.035A1.03 1.03 0 00.011 7.722c.01.091 1 9.188 1.536 14.056a4.459 4.459 0 004.438 3.977h9.036a4.459 4.459 0 004.434-3.975l1.539-14.054a1.03 1.03 0 00-1.024-1.143h-3.686V5.8A5.809 5.809 0 0010.481 0zM6.735 5.8a3.742 3.742 0 017.484 0v.78H6.735zm12.081 2.841l-1.41 12.914a2.4 2.4 0 01-2.39 2.142H5.98a2.4 2.4 0 01-2.39-2.142c-.421-3.837-1.127-10.3-1.411-12.913h2.5v2.848a1.03 1.03 0 102.061 0V8.643h7.484v2.848a1.03 1.03 0 102.061 0V8.643z" data-name="Path 152" fill="#0a3251"/></g></g></svg>