<svg xmlns="http://www.w3.org/2000/svg" viewBox="0 0 48 48"><path d="M0 0h48v48H0z" data-name="Rectangle 193" fill="#fff"/><g data-name="icon (2)"><path d="M28.514 8.017h-13.33a2.281 2.281 0 00-2.305 2.257V36.75a2.28 2.28 0 002.305 2.255h13.33a2.281 2.281 0 002.305-2.255V10.274a2.282 2.282 0 00-2.305-2.257zM18.56 9.388h6.58c.166 0 .3.243.3.543s-.135.544-.3.544h-6.58c-.167 0-.3-.244-.3-.544s.133-.543.3-.543zm3.29 27.389a1.44 1.44 0 111.47-1.441 1.458 1.458 0 01-1.47 1.441zm7.242-4.933H14.607V11.826h14.485z" data-name="Path 6" fill="#335eea"/></g><path d="M35.366 28.965q-1.371-3.409-7.4-3.409H26.07V23.39a.538.538 0 00-.922-.381l-4.33 4.331a.531.531 0 000 .761l4.33 4.331a.541.541 0 00.922-.381v-2.165h1.895q.829 0 1.484.051a10.7 10.7 0 011.3.182 4.835 4.835 0 011.125.36 3.982 3.982 0 01.892.588 2.947 2.947 0 01.677.854 4.6 4.6 0 01.41 1.171 7.2 7.2 0 01.148 1.531q0 .465-.042 1.04a1.733 1.733 0 01-.021.2 1.741 1.741 0 00-.021.224.316.316 0 00.072.211.247.247 0 00.2.084.289.289 0 00.237-.144.967.967 0 00.11-.186q.051-.11.114-.254c.042-.1.072-.163.089-.2a10.156 10.156 0 001.074-3.815 7.7 7.7 0 00-.447-2.818z" data-name="Path 81" stroke="#fff" stroke-width="2" fill="#335eea"/></svg>