<svg viewBox="0 0 128 128" xmlns="http://www.w3.org/2000/svg"><path d="M34.998 121a1.998 1.998 0 01-1.773-2.92l57-110a1.998 1.998 0 113.55 1.84l-57 110a1.998 1.998 0 01-1.777 1.08zM40 55c-13.233 0-24-10.767-24-24S26.767 7 40 7s24 10.767 24 24-10.767 24-24 24zm0-44c-11.028 0-20 8.972-20 20s8.972 20 20 20 20-8.972 20-20-8.972-20-20-20zm48 110c-13.233 0-24-10.767-24-24s10.767-24 24-24 24 10.767 24 24-10.767 24-24 24zm0-44c-11.028 0-20 8.972-20 20s8.972 20 20 20 20-8.972 20-20-8.972-20-20-20z" fill="#505070"/></svg>