<svg xmlns="http://www.w3.org/2000/svg" width="101.001" height="101.001"><path d="M66.132 0H34.87c-5.692 0-10.306 4.614-10.306 10.307v80.387c0 5.692 4.614 10.307 10.306 10.307h31.262c5.691 0 10.306-4.614 10.306-10.307V10.306C76.438 4.614 71.823 0 66.132 0zm-.944 6.25a1.375 1.375 0 110 2.75 1.375 1.375 0 010-2.75zm-5.125 1a.75.75 0 110 1.5.75.75 0 010-1.5zm-2.437 0a.75.75 0 110 1.5.75.75 0 010-1.5zM44.75 4.5h11.5a.625.625 0 110 1.25h-11.5a.625.625 0 110-1.25zm10.134 93.809h-8.766a2.617 2.617 0 01-2.617-2.617h14a2.617 2.617 0 01-2.617 2.617zm18.172-8.08h-45.11V10.77h45.11v79.459z"/></svg>