<svg xmlns="http://www.w3.org/2000/svg" width="24.167" height="24.168" viewBox="0 0 94.167 94.168"><path fill="gray" d="M65.402 94.168H28.765c-3.981 0-7.22-3.238-7.22-7.22V7.22c0-3.98 3.239-7.22 7.22-7.22h36.637c3.981 0 7.222 3.238 7.222 7.22v79.729c-.001 3.981-3.241 7.219-7.222 7.219zM28.765 1c-3.43 0-6.22 2.79-6.22 6.22v79.729c0 3.43 2.79 6.22 6.22 6.22h36.637a6.228 6.228 0 006.222-6.22V7.22c0-3.43-2.791-6.22-6.222-6.22H28.765zm20.664 89.758h-4.691c-1.761 0-3.193-1.432-3.193-3.191s1.433-3.192 3.193-3.192h4.691c1.762 0 3.193 1.433 3.193 3.192s-1.433 3.191-3.193 3.191zm-4.692-5.385c-1.209 0-2.193.982-2.193 2.191s.984 2.192 2.193 2.192h4.692c1.209 0 2.192-.983 2.192-2.192s-.983-2.191-2.192-2.191h-4.692zm25.04-2.125H24.391V10.92h45.386v72.328zm-44.386-1h43.386V11.92H25.391v70.328zM51.58 6.172h-8.991a.837.837 0 01-.001-1.672h8.991a.837.837 0 01.001 1.672zM42.587 5a.335.335 0 100 .672h8.991A.336.336 0 0051.579 5h-8.992zm-8.646 1.523a1.189 1.189 0 11.002-2.378 1.189 1.189 0 01-.002 2.378zm0-1.875a.69.69 0 000 1.376.69.69 0 000-1.376zm-4.25 2.438c-.965 0-1.75-.785-1.75-1.75s.785-1.75 1.75-1.75 1.75.785 1.75 1.75-.784 1.75-1.75 1.75zm0-3c-.689 0-1.25.561-1.25 1.25s.561 1.25 1.25 1.25 1.25-.561 1.25-1.25-.56-1.25-1.25-1.25z"/></svg>