<svg xmlns="http://www.w3.org/2000/svg" viewBox="0 0 22.266 19.789"><path data-name="Path 5" d="M4.136 0h16.482a1.648 1.648 0 011.648 1.648L19.778 18.14a1.648 1.648 0 01-1.648 1.648H1.648A1.648 1.648 0 010 18.14L2.488 1.648A1.648 1.648 0 014.136 0z" fill="#f5f5f5"/><g data-name="Group 148"><g data-name="Group 147" fill="#0a3251" fill-rule="evenodd"><path data-name="Path 190" d="M5.516 5h11.14a.323.323 0 01.3.353v7.491a.323.323 0 01-.3.353H5.516a.335.335 0 01-.3-.353V5.353a.335.335 0 01.3-.353zm.335.758h10.465v6.663H5.851z" stroke="#0a3251" stroke-width=".62"/><path data-name="Path 191" d="M4.317 12.897h13.555a.516.516 0 01.511.529.512.512 0 01-.511.511H4.317a.527.527 0 01-.529-.511.53.53 0 01.529-.529zm5.711.3h2.133a.219.219 0 01.212.229.214.214 0 01-.212.211h-2.133a.214.214 0 01-.212-.211.219.219 0 01.212-.229z"/></g></g></svg>