<svg xmlns="http://www.w3.org/2000/svg" viewBox="0 0 512.088 512.088" width="24" height="24"><g fill="gray"><path d="M408.074 0h-304.06C79.808 0 60.115 19.693 60.115 43.899v26.4a7.5 7.5 0 0015 0v-26.4C75.115 27.964 88.079 15 104.014 15h304.06c15.935 0 28.899 12.964 28.899 28.899v424.29c0 15.935-12.964 28.899-28.899 28.899h-304.06c-15.935 0-28.899-12.964-28.899-28.899v-367.89a7.5 7.5 0 00-15 0v367.89c0 24.206 19.693 43.899 43.899 43.899h304.06c24.206 0 43.899-19.693 43.899-43.899V43.899C451.973 19.693 432.28 0 408.074 0z"/><path d="M89.979 61.438v283.378a7.5 7.5 0 0015 0V68.938h302.13v102.854a7.5 7.5 0 0015 0V61.438a7.5 7.5 0 00-7.5-7.5H97.479a7.5 7.5 0 00-7.5 7.5zm0 370.582a7.5 7.5 0 007.5 7.5h317.13a7.5 7.5 0 007.5-7.5V201.792a7.5 7.5 0 00-15 0V424.52h-302.13v-49.703a7.5 7.5 0 00-15 0v57.203zm143.217 34.509c0 12.599 10.249 22.848 22.848 22.848 12.599 0 22.848-10.249 22.848-22.848 0-12.598-10.25-22.848-22.848-22.848-12.599 0-22.848 10.25-22.848 22.848zm30.696 0c0 4.328-3.521 7.848-7.848 7.848-4.328 0-7.848-3.52-7.848-7.848 0-4.327 3.52-7.848 7.848-7.848 4.327 0 7.848 3.521 7.848 7.848zm24.556-424.712a7.5 7.5 0 000-15h-34.184a7.5 7.5 0 000 15h34.184z"/><circle cx="225.637" cy="34.285" r="7.5"/></g></svg>