<svg xmlns="http://www.w3.org/2000/svg" viewBox="0 0 22.266 19.789"><path data-name="Path 5" d="M4.136 0h16.482a1.648 1.648 0 011.648 1.648L19.778 18.14a1.648 1.648 0 01-1.648 1.648H1.648A1.648 1.648 0 010 18.14L2.488 1.648A1.648 1.648 0 014.136 0z" fill="#f5f5f5"/><path data-name="Path 181" d="M16.7 5.328a1.19 1.19 0 01.881.329 1.171 1.171 0 01.294.832v.573q0 .5-.007 1.21t-.007 1.525q0 .818-.007 1.532t-.007 1.23v.615a1.107 1.107 0 01-.259.748.808.808 0 01-.636.3H6.238a1.165 1.165 0 01-.783-.329 1.07 1.07 0 01-.336-.818V6.501a1.25 1.25 0 01.077-.434 1.191 1.191 0 01.224-.378 1.153 1.153 0 01.357-.273 1.081 1.081 0 01.49-.1h7.007q.9 0 1.615.007t1.21.007zm-.615 1.315H6.602l.014 6.182 9.455-.014zm.923 2.6a.509.509 0 00-.364.147.49.49 0 000 .713.524.524 0 00.727 0 .49.49 0 000-.713.509.509 0 00-.364-.146z" fill="#0a3251"/></svg>